<mxfile host="app.diagrams.net" agent="Mozilla/5.0 (Windows NT 10.0; Win64; x64) AppleWebKit/537.36 (KHTML, like Gecko) Chrome/131.0.0.0 Safari/537.36" version="26.0.5">
  <diagram name="Page-1" id="-S-GobcB35B68QLf8V6f">
    <mxGraphModel dx="1400" dy="1796" grid="1" gridSize="10" guides="1" tooltips="1" connect="1" arrows="1" fold="1" page="1" pageScale="1" pageWidth="850" pageHeight="1100" math="0" shadow="0">
      <root>
        <mxCell id="0" />
        <mxCell id="1" parent="0" />
        <mxCell id="qZx7lZ6UvHh4e0g7V4Rf-1" value="tara" style="rounded=0;whiteSpace=wrap;html=1;" parent="1" vertex="1">
          <mxGeometry x="120" y="30" width="120" height="60" as="geometry" />
        </mxCell>
        <mxCell id="qZx7lZ6UvHh4e0g7V4Rf-2" value="market" style="rounded=0;whiteSpace=wrap;html=1;" parent="1" vertex="1">
          <mxGeometry x="840" y="10" width="120" height="60" as="geometry" />
        </mxCell>
        <mxCell id="qZx7lZ6UvHh4e0g7V4Rf-3" value="bon" style="rounded=0;whiteSpace=wrap;html=1;" parent="1" vertex="1">
          <mxGeometry x="850" y="180" width="120" height="60" as="geometry" />
        </mxCell>
        <mxCell id="qZx7lZ6UvHh4e0g7V4Rf-4" value="stoc" style="rounded=0;whiteSpace=wrap;html=1;" parent="1" vertex="1">
          <mxGeometry x="1240" y="140" width="120" height="60" as="geometry" />
        </mxCell>
        <mxCell id="qZx7lZ6UvHh4e0g7V4Rf-5" value="furnizori" style="rounded=0;whiteSpace=wrap;html=1;" parent="1" vertex="1">
          <mxGeometry x="1270" y="270" width="120" height="60" as="geometry" />
        </mxCell>
        <mxCell id="Ags8xssxzjcBr3NvuwEO-2" value="" style="fontSize=12;html=1;endArrow=ERoneToMany;rounded=0;exitX=1;exitY=0.5;exitDx=0;exitDy=0;entryX=0;entryY=0.5;entryDx=0;entryDy=0;" edge="1" parent="1" source="qZx7lZ6UvHh4e0g7V4Rf-1" target="Ags8xssxzjcBr3NvuwEO-3">
          <mxGeometry width="100" height="100" relative="1" as="geometry">
            <mxPoint x="280" y="130" as="sourcePoint" />
            <mxPoint x="390" y="-20" as="targetPoint" />
          </mxGeometry>
        </mxCell>
        <mxCell id="Ags8xssxzjcBr3NvuwEO-3" value="judet" style="rounded=0;whiteSpace=wrap;html=1;" vertex="1" parent="1">
          <mxGeometry x="365" y="20" width="120" height="60" as="geometry" />
        </mxCell>
        <mxCell id="Ags8xssxzjcBr3NvuwEO-4" value="uat" style="rounded=0;whiteSpace=wrap;html=1;" vertex="1" parent="1">
          <mxGeometry x="580" y="20" width="120" height="60" as="geometry" />
        </mxCell>
        <mxCell id="Ags8xssxzjcBr3NvuwEO-6" value="tip_market" style="rounded=0;whiteSpace=wrap;html=1;" vertex="1" parent="1">
          <mxGeometry x="840" y="-140" width="120" height="60" as="geometry" />
        </mxCell>
        <mxCell id="Ags8xssxzjcBr3NvuwEO-7" value="persoane" style="rounded=0;whiteSpace=wrap;html=1;" vertex="1" parent="1">
          <mxGeometry x="140" y="180" width="120" height="60" as="geometry" />
        </mxCell>
        <mxCell id="Ags8xssxzjcBr3NvuwEO-8" value="clienti" style="rounded=0;whiteSpace=wrap;html=1;" vertex="1" parent="1">
          <mxGeometry x="410" y="180" width="120" height="60" as="geometry" />
        </mxCell>
        <mxCell id="Ags8xssxzjcBr3NvuwEO-9" value="produse" style="rounded=0;whiteSpace=wrap;html=1;" vertex="1" parent="1">
          <mxGeometry x="1230" y="10" width="120" height="60" as="geometry" />
        </mxCell>
        <mxCell id="Ags8xssxzjcBr3NvuwEO-10" value="tip_produse" style="rounded=0;whiteSpace=wrap;html=1;" vertex="1" parent="1">
          <mxGeometry x="1430" y="10" width="120" height="60" as="geometry" />
        </mxCell>
        <mxCell id="Ags8xssxzjcBr3NvuwEO-11" value="tip_furnizor" style="rounded=0;whiteSpace=wrap;html=1;" vertex="1" parent="1">
          <mxGeometry x="1470" y="270" width="120" height="60" as="geometry" />
        </mxCell>
        <mxCell id="Ags8xssxzjcBr3NvuwEO-12" value="" style="edgeStyle=entityRelationEdgeStyle;fontSize=12;html=1;endArrow=ERoneToMany;rounded=0;exitX=1;exitY=0.5;exitDx=0;exitDy=0;entryX=0;entryY=0.5;entryDx=0;entryDy=0;" edge="1" parent="1" source="Ags8xssxzjcBr3NvuwEO-3" target="Ags8xssxzjcBr3NvuwEO-4">
          <mxGeometry width="100" height="100" relative="1" as="geometry">
            <mxPoint x="530" y="70" as="sourcePoint" />
            <mxPoint x="660" y="70" as="targetPoint" />
          </mxGeometry>
        </mxCell>
        <mxCell id="Ags8xssxzjcBr3NvuwEO-14" value="" style="fontSize=12;html=1;endArrow=ERoneToMany;rounded=0;entryX=0;entryY=0.75;entryDx=0;entryDy=0;" edge="1" parent="1">
          <mxGeometry width="100" height="100" relative="1" as="geometry">
            <mxPoint x="700" y="37.5" as="sourcePoint" />
            <mxPoint x="840" y="42.5" as="targetPoint" />
          </mxGeometry>
        </mxCell>
        <mxCell id="Ags8xssxzjcBr3NvuwEO-17" value="" style="fontSize=12;html=1;endArrow=ERoneToMany;rounded=0;exitX=0.5;exitY=1;exitDx=0;exitDy=0;entryX=0.5;entryY=0;entryDx=0;entryDy=0;elbow=vertical;" edge="1" parent="1" source="Ags8xssxzjcBr3NvuwEO-6" target="qZx7lZ6UvHh4e0g7V4Rf-2">
          <mxGeometry width="100" height="100" relative="1" as="geometry">
            <mxPoint x="760" y="-160" as="sourcePoint" />
            <mxPoint x="880" y="-10" as="targetPoint" />
          </mxGeometry>
        </mxCell>
        <mxCell id="Ags8xssxzjcBr3NvuwEO-18" value="" style="edgeStyle=entityRelationEdgeStyle;fontSize=12;html=1;endArrow=ERmandOne;startArrow=ERmandOne;rounded=0;exitX=1;exitY=0.5;exitDx=0;exitDy=0;entryX=0;entryY=0.5;entryDx=0;entryDy=0;" edge="1" parent="1" source="Ags8xssxzjcBr3NvuwEO-7" target="Ags8xssxzjcBr3NvuwEO-8">
          <mxGeometry width="100" height="100" relative="1" as="geometry">
            <mxPoint x="510" y="165" as="sourcePoint" />
            <mxPoint x="500" y="255" as="targetPoint" />
          </mxGeometry>
        </mxCell>
        <mxCell id="Ags8xssxzjcBr3NvuwEO-22" value="clienti_vanzari" style="rounded=0;whiteSpace=wrap;html=1;" vertex="1" parent="1">
          <mxGeometry x="620" y="270" width="120" height="60" as="geometry" />
        </mxCell>
        <mxCell id="Ags8xssxzjcBr3NvuwEO-23" value="" style="fontSize=12;html=1;endArrow=ERoneToMany;rounded=0;exitX=0;exitY=0.5;exitDx=0;exitDy=0;entryX=1;entryY=0.5;entryDx=0;entryDy=0;" edge="1" parent="1" source="qZx7lZ6UvHh4e0g7V4Rf-3" target="Ags8xssxzjcBr3NvuwEO-22">
          <mxGeometry width="100" height="100" relative="1" as="geometry">
            <mxPoint x="570" y="280" as="sourcePoint" />
            <mxPoint x="670" y="180" as="targetPoint" />
          </mxGeometry>
        </mxCell>
        <mxCell id="Ags8xssxzjcBr3NvuwEO-24" value="" style="fontSize=12;html=1;endArrow=ERoneToMany;rounded=0;exitX=1;exitY=0.5;exitDx=0;exitDy=0;entryX=0;entryY=0.5;entryDx=0;entryDy=0;" edge="1" parent="1" source="Ags8xssxzjcBr3NvuwEO-8" target="Ags8xssxzjcBr3NvuwEO-22">
          <mxGeometry width="100" height="100" relative="1" as="geometry">
            <mxPoint x="570" y="280" as="sourcePoint" />
            <mxPoint x="670" y="180" as="targetPoint" />
          </mxGeometry>
        </mxCell>
        <mxCell id="Ags8xssxzjcBr3NvuwEO-26" value="" style="fontSize=12;html=1;endArrow=ERoneToMany;rounded=0;exitX=0.003;exitY=0.647;exitDx=0;exitDy=0;exitPerimeter=0;entryX=1;entryY=0.5;entryDx=0;entryDy=0;" edge="1" parent="1" source="Ags8xssxzjcBr3NvuwEO-10" target="Ags8xssxzjcBr3NvuwEO-9">
          <mxGeometry width="100" height="100" relative="1" as="geometry">
            <mxPoint x="1330" y="150" as="sourcePoint" />
            <mxPoint x="1430" y="50" as="targetPoint" />
          </mxGeometry>
        </mxCell>
        <mxCell id="Ags8xssxzjcBr3NvuwEO-27" value="" style="fontSize=12;html=1;endArrow=ERoneToMany;rounded=0;exitX=0;exitY=0.5;exitDx=0;exitDy=0;entryX=1;entryY=0.5;entryDx=0;entryDy=0;" edge="1" parent="1" source="Ags8xssxzjcBr3NvuwEO-11" target="qZx7lZ6UvHh4e0g7V4Rf-5">
          <mxGeometry width="100" height="100" relative="1" as="geometry">
            <mxPoint x="680" y="370" as="sourcePoint" />
            <mxPoint x="780" y="270" as="targetPoint" />
          </mxGeometry>
        </mxCell>
        <mxCell id="Ags8xssxzjcBr3NvuwEO-29" value="" style="fontSize=12;html=1;endArrow=ERoneToMany;rounded=0;exitX=0.433;exitY=1.027;exitDx=0;exitDy=0;exitPerimeter=0;entryX=0.5;entryY=0;entryDx=0;entryDy=0;" edge="1" parent="1" source="Ags8xssxzjcBr3NvuwEO-9" target="qZx7lZ6UvHh4e0g7V4Rf-4">
          <mxGeometry width="100" height="100" relative="1" as="geometry">
            <mxPoint x="1550" y="310" as="sourcePoint" />
            <mxPoint x="1650" y="210" as="targetPoint" />
          </mxGeometry>
        </mxCell>
        <mxCell id="Ags8xssxzjcBr3NvuwEO-30" value="" style="fontSize=12;html=1;endArrow=ERoneToMany;rounded=0;entryX=0.5;entryY=1;entryDx=0;entryDy=0;" edge="1" parent="1" target="qZx7lZ6UvHh4e0g7V4Rf-4">
          <mxGeometry width="100" height="100" relative="1" as="geometry">
            <mxPoint x="1330" y="270" as="sourcePoint" />
            <mxPoint x="1320" y="320" as="targetPoint" />
          </mxGeometry>
        </mxCell>
        <mxCell id="Ags8xssxzjcBr3NvuwEO-31" value="" style="fontSize=12;html=1;endArrow=ERoneToMany;rounded=0;entryX=0;entryY=0.5;entryDx=0;entryDy=0;exitX=1;exitY=0.75;exitDx=0;exitDy=0;" edge="1" parent="1" source="qZx7lZ6UvHh4e0g7V4Rf-2" target="Ags8xssxzjcBr3NvuwEO-34">
          <mxGeometry width="100" height="100" relative="1" as="geometry">
            <mxPoint x="960" y="120" as="sourcePoint" />
            <mxPoint x="1190" y="20" as="targetPoint" />
          </mxGeometry>
        </mxCell>
        <mxCell id="Ags8xssxzjcBr3NvuwEO-34" value="market_produse" style="rounded=0;whiteSpace=wrap;html=1;" vertex="1" parent="1">
          <mxGeometry x="1040" y="10" width="120" height="60" as="geometry" />
        </mxCell>
        <mxCell id="Ags8xssxzjcBr3NvuwEO-35" value="" style="edgeStyle=entityRelationEdgeStyle;fontSize=12;html=1;endArrow=ERoneToMany;rounded=0;exitX=0;exitY=0.75;exitDx=0;exitDy=0;entryX=1;entryY=0.75;entryDx=0;entryDy=0;" edge="1" parent="1" source="Ags8xssxzjcBr3NvuwEO-9" target="Ags8xssxzjcBr3NvuwEO-34">
          <mxGeometry width="100" height="100" relative="1" as="geometry">
            <mxPoint x="1170" y="-10" as="sourcePoint" />
            <mxPoint x="1270" y="-110" as="targetPoint" />
          </mxGeometry>
        </mxCell>
        <mxCell id="Ags8xssxzjcBr3NvuwEO-36" value="produse_bon" style="rounded=0;whiteSpace=wrap;html=1;" vertex="1" parent="1">
          <mxGeometry x="1050" y="170" width="120" height="60" as="geometry" />
        </mxCell>
        <mxCell id="Ags8xssxzjcBr3NvuwEO-37" value="" style="fontSize=12;html=1;endArrow=ERoneToMany;rounded=0;exitX=0.5;exitY=1;exitDx=0;exitDy=0;entryX=0.5;entryY=0;entryDx=0;entryDy=0;" edge="1" parent="1" source="Ags8xssxzjcBr3NvuwEO-34" target="Ags8xssxzjcBr3NvuwEO-36">
          <mxGeometry width="100" height="100" relative="1" as="geometry">
            <mxPoint x="1040" y="110" as="sourcePoint" />
            <mxPoint x="1190" y="225" as="targetPoint" />
          </mxGeometry>
        </mxCell>
        <mxCell id="Ags8xssxzjcBr3NvuwEO-38" value="" style="fontSize=12;html=1;endArrow=ERoneToMany;rounded=0;exitX=1;exitY=0.5;exitDx=0;exitDy=0;entryX=0;entryY=0.75;entryDx=0;entryDy=0;" edge="1" parent="1" source="qZx7lZ6UvHh4e0g7V4Rf-3" target="Ags8xssxzjcBr3NvuwEO-36">
          <mxGeometry width="100" height="100" relative="1" as="geometry">
            <mxPoint x="1030" y="230" as="sourcePoint" />
            <mxPoint x="1130" y="130" as="targetPoint" />
          </mxGeometry>
        </mxCell>
      </root>
    </mxGraphModel>
  </diagram>
</mxfile>
